<svg width="1080" height="1080" viewBox="0 0 1080 1080" fill="none" xmlns="http://www.w3.org/2000/svg">
<path d="M252.231 615.23C286.398 571.806 326.561 535.69 374.393 508.559C408.598 489.157 445.054 475.526 484.222 470.401C521.728 465.493 558.995 467.563 595.885 476.191C656.023 490.256 708.852 518.606 755.657 558.408C795.532 592.317 827.172 633.049 853.222 678.317C868.232 704.399 880.938 731.529 890.675 759.964C899.551 785.883 905.678 812.416 907.318 839.955C908.847 865.601 906.301 890.637 897.041 914.575C880.806 956.543 850.464 984.855 809.373 1001.99C764.648 1020.65 717.802 1031.7 670.061 1038.81C642.915 1042.85 615.563 1046.04 588.187 1047.85C556.818 1049.92 525.295 1051.32 493.883 1050.71C436.531 1049.61 379.505 1044.27 323.535 1030.77C303.436 1025.92 283.324 1020.81 264.708 1011.6C212.253 985.651 173.937 947.353 159.47 888.791C153.099 863.001 155.154 837.26 160.355 811.555C167.594 775.777 179.13 741.484 194.66 708.432C210.256 675.242 229.464 644.366 252.231 615.23ZM295.012 680.582C286.984 703.008 282.999 726.029 286.378 749.785C293.435 799.395 319.018 838.544 356.029 870.987C381.21 893.06 409.868 910.155 438.246 927.598C471.793 948.218 504.895 969.367 532.038 998.46C535.612 1002.29 536.712 1001.86 539.366 997.302C543.384 990.402 547.19 983.335 551.759 976.81C567.016 955.022 586.167 936.982 607.716 921.644C631.595 904.648 656.023 888.422 680.215 871.865C703.55 855.895 725.044 837.813 743.287 816.117C768.652 785.948 781.685 751.642 776.901 711.798C773.289 681.715 760.912 655.688 737.817 635.804C711.519 613.163 680.758 603.074 645.866 605.867C628.072 607.291 611.466 612.31 596.209 621.289C567.3 638.303 546.178 662.794 530.04 691.877C529.047 693.667 527.834 695.336 525.944 698.271C523.827 694.287 522.178 691.498 520.818 688.575C510.588 666.589 496.187 647.707 477.118 632.845C449.811 611.562 419.104 600.661 383.952 605.041C359.224 608.122 338.801 619.645 321.754 637.247C309.927 649.459 301.446 664 295.012 680.582Z" fill="#181513"/>
<path d="M509.823 235.647C507.215 260.717 502.504 284.888 494.055 308.185C477.373 354.181 445.116 381.81 396.227 387.529C361.705 391.567 330.467 381.524 303.743 359.151C272.489 332.984 254.467 298.521 243.253 260.007C236.361 236.336 232.751 212.096 233.178 187.532C233.733 155.573 239.337 124.559 255.382 96.2442C276.305 59.3193 307.295 36.1989 349.568 30.2804C391.311 24.4361 428.511 35.9779 460.137 63.9147C472.896 75.1849 481.437 89.8474 488.811 105.071C500.567 129.34 507.501 155.072 509.417 181.852C510.683 199.55 509.791 217.403 509.823 235.647Z" fill="#181513"/>
<path d="M787.214 360.203C775.582 374.505 761.769 385.701 745.804 393.994C713.229 410.914 679.42 411.081 645.503 399.055C607.394 385.543 583.586 357.497 569.746 320.431C559.351 292.589 555.725 263.55 557.149 233.98C558.873 198.169 566.537 163.639 582.58 131.399C593.875 108.702 608.188 88.0513 628.729 72.5631C646.845 58.9039 667.419 52.427 690.168 51.9123C726.318 51.0943 757.822 63.1032 785.614 85.526C808.042 103.621 821.553 127.586 829.688 154.848C835.593 174.635 838.381 194.992 837.844 215.521C836.549 264.929 823.652 310.848 794.345 351.387C792.203 354.35 789.757 357.094 787.214 360.203Z" fill="#181513"/>
<path d="M1015.98 561.972C999.806 583.73 980.045 600.361 954.512 609.269C925.654 619.336 898.185 615.067 871.688 600.773C830.742 578.685 814.282 535.282 818.613 492.855C822.314 456.592 835.313 424.115 857.027 395.082C871.498 375.733 888.813 359.444 911.748 350.635C940.063 339.76 967.375 343.307 992.238 360.153C1025.35 382.588 1043.68 414.6 1047.63 454.209C1050.37 481.765 1045.09 508.374 1032.74 533.246C1027.87 543.045 1021.74 552.217 1015.98 561.972Z" fill="#181513"/>
<path d="M36.252 420.351C40.4191 398.315 49.3376 378.846 64.1872 362.676C91.9336 332.462 129.777 321.561 168.182 338.362C216.856 359.655 243.891 398.17 251.896 450.253C255.089 471.029 256.929 491.926 251.955 512.781C244.173 545.405 227.401 571.853 197.63 588.321C176.117 600.222 152.971 601.668 129.371 594.62C97.2482 585.026 74.6468 563.736 57.9536 535.629C36.8294 500.061 29.5711 461.688 36.252 420.351Z" fill="#181513"/>
</svg>
